<svg xmlns="http://www.w3.org/2000/svg" xmlns:xlink="http://www.w3.org/1999/xlink" version="1.1" x="0px" y="0px" viewBox="0 0 100 125" enable-background="new 0 0 100 100" xml:space="preserve"><path d="M27.945,57.169L13.596,76.459l22.78-7.696L36.09,92.817L50,73.186l13.91,19.631l-0.287-24.053l22.78,7.696L72.055,57.169  L95,50l-22.945-7.169l14.348-19.291l-22.78,7.696L63.91,7.183L50,26.814L36.09,7.183l0.287,24.053l-22.78-7.696l14.348,19.291L5,50  L27.945,57.169z M24.646,31.573l15.871,5.362l-0.2-16.739L50,33.858l9.682-13.663l-0.199,16.739l15.871-5.362l-9.992,13.434  L81.342,50l-15.981,4.993l9.992,13.434l-15.871-5.362l0.2,16.739L50,66.142l-9.682,13.663l0.199-16.739l-15.871,5.362l9.992-13.434  L18.658,50l15.981-4.993L24.646,31.573z"/></svg>