<svg xmlns="http://www.w3.org/2000/svg" xmlns:xlink="http://www.w3.org/1999/xlink" viewBox="0 0 239 188.75" version="1.1" x="0px" y="0px"><title>Artboard</title><desc>Created with Sketch.</desc><g stroke="none" stroke-width="1" fill="none" fill-rule="evenodd"><path d="M71.5361304,119.888915 C74.1534985,117.911811 76.9565558,116.182853 79.93308,114.716841 C76.2350324,109.798397 72.6893839,105.355048 69.0494592,101.027473 C66.9854085,98.573484 64.9587051,96.2331696 62.4685874,93.4111493 C61.8842835,92.7489647 57.61427,87.9350028 56.3998123,86.551396 C55.0243636,84.9843754 53.833955,83.6076127 52.6981646,82.2657127 C52.5086386,82.0417938 52.3210485,81.819322 52.1351559,81.5979985 C39.2754777,66.9382913 41.3334673,29.042506 57.714817,14.8647123 C59.0492144,13.5102021 60.7610798,12.7889853 62.6383927,13.3272961 C64.3698483,13.8237831 65.3495508,15.166041 65.6498224,16.6494481 C65.7879123,17.3316425 65.7745302,17.9662173 65.6754508,18.6520205 C65.5553328,19.4834485 65.2877126,20.4515216 64.8748152,21.6460857 C64.1875299,23.6344882 63.0483157,26.3704231 61.451144,29.9079013 C58.0518342,37.5460052 56.4839553,47.1007465 56.9284335,55.0132751 C58.7450727,47.6433664 60.867526,42.2901483 64.8608095,36.687307 C68.7610152,31.2675088 74.0405195,26.3901624 77.5826723,27.4058584 C79.9164714,28.0750645 80.7763471,30.0547501 80.6313248,31.9624242 C80.572444,32.7369639 80.3502325,33.4808853 79.9937966,34.3104408 C79.4305701,35.6212725 78.4351209,37.3185606 76.9901351,39.4305291 C73.558639,44.4459497 71.3421173,48.8318029 70.2698955,52.4189682 C69.645359,54.5083828 69.4647152,56.1441047 69.7455047,57.2590413 C74.2834999,58.5602905 83.0002956,56.7091394 88.2072339,52.3280467 C95.3589541,46.6291564 98.1637374,44.7329693 101.114599,45.5791152 C104.065772,46.4253504 104.699063,49.1235902 103.917543,51.3688559 C103.631793,52.1897991 103.149677,53.0127197 102.425239,54.0299327 C101.231603,55.7059657 99.1865137,58.1417899 96.1031967,61.5658754 C92.0373133,66.0046067 86.5269441,68.9041989 80.5555253,69.7599112 C79.2622634,69.9774982 77.9040013,70.1381618 75.9254737,70.3280779 C75.4985942,70.3690535 74.0496667,70.5041866 73.8797056,70.5202691 C69.0264916,70.9795004 66.5865215,71.438339 65.1567118,72.2492939 C64.3394475,72.7128272 64.20407,73.0369556 64.9293114,74.8253096 C69.6938139,81.2813972 74.9969252,86.0644429 79.4342314,87.5880901 C80.7912748,86.7865378 83.1047058,81.9247272 84.9262893,75.5721106 C85.352513,74.0856919 85.9070012,72.7617052 86.5567329,71.7354989 C87.8467623,69.697987 89.5407459,68.3759904 92.1905413,69.135807 C94.4873728,69.7944128 95.2897903,71.4434785 95.6108644,73.6245517 C95.7822583,74.7888393 95.7933576,76.2794606 95.6574237,78.153549 C95.48995,80.0751959 95.4439847,81.2495087 95.4970234,81.9852326 C95.8598351,83.1494902 95.7901374,83.9167264 95.3566977,85.8173221 C95.2393763,86.2264705 95.0904515,86.6650482 94.8779143,87.2467179 C94.7638817,87.5588014 94.317092,88.7521049 94.3128253,88.7635805 C93.2187423,91.7061242 92.6204859,93.774979 92.3686542,95.9387068 C92.1468357,97.8445628 92.2707004,99.5196854 92.7677104,100.967219 C93.7494269,103.669233 94.759388,105.867405 95.7334186,107.595629 C96.1764124,108.381633 96.5096119,108.898324 96.6985664,109.163719 C96.8606878,109.314395 97.0092728,109.423309 97.1592536,109.505405 C100.143573,109.087806 103.235412,108.874604 106.4275,108.874604 C111.198707,108.874604 115.745948,109.350923 120.044938,110.274158 C120.195763,110.23925 120.350738,110.206473 120.512285,110.174793 C120.679115,110.142077 120.729844,110.132848 121.087365,110.068871 C121.625949,109.972495 121.8454,109.92144 122.071286,109.839225 C122.404442,109.717966 122.679887,109.544882 122.992158,109.209945 C123.170517,108.921152 123.48252,108.358187 123.890229,107.504612 C124.775374,105.651481 125.663808,103.312726 126.48695,100.458292 C126.902124,98.9169225 126.911673,97.1709435 126.545596,95.2144934 C126.131302,93.0003559 125.366111,90.9126478 124.027281,87.9632872 C124.021921,87.9514791 123.477224,86.7588129 123.337814,86.4470095 C123.078514,85.8670573 122.894796,85.4293191 122.745942,85.0203457 C122.171988,83.1229705 122.047872,82.3519023 122.333627,81.1546349 C122.339301,80.3617368 122.20851,79.1545201 121.899673,77.1899265 C121.628148,75.2816051 121.534738,73.7565664 121.628487,72.5570631 C121.801758,70.3401042 122.496354,68.6271243 124.744913,67.8087158 C127.340658,66.8639421 129.13967,68.0705072 130.582977,70.0276237 C131.318871,71.0254914 131.979809,72.3365787 132.521142,73.82388 C134.881699,80.3094564 137.630343,85.1609702 139.153065,85.848569 C143.670026,83.9617093 148.84353,78.6213536 153.332597,71.5845945 C153.975347,69.6248703 153.795144,69.2511661 152.864709,68.8086623 C151.310045,68.0692824 148.750684,67.7754407 143.694288,67.6589135 C143.517756,67.6548452 142.014619,67.6222253 141.571882,67.6114252 C139.521048,67.5613969 138.111974,67.496001 136.767003,67.3675578 C130.581139,66.9287513 124.722726,64.3660715 120.237864,60.1235032 C116.820134,56.834729 114.542133,54.4848368 113.196459,52.8545381 C112.383539,51.869676 111.833085,51.0665062 111.485202,50.2550586 C110.543531,48.0585815 110.993605,45.3148811 113.881079,44.2639264 C116.788518,43.2057049 119.857947,44.9733462 127.537179,50.2375155 C133.246526,54.3796611 142.412746,55.6492128 147.045137,53.9631602 C147.136868,53.9297729 147.22079,53.8960487 147.296413,53.862874 C147.363149,52.7409861 147.062783,51.0314014 146.249147,48.8718522 C144.886423,45.2549132 142.286256,40.9030338 138.388161,35.9945265 C136.753147,33.9357058 135.610512,32.270174 134.940835,30.971773 C134.519436,30.1547445 134.241349,29.4162313 134.127853,28.6379962 C133.850818,26.7383999 134.576473,24.7006493 136.857077,23.8705775 C140.347732,22.6000829 146.119627,27.2111775 150.477859,32.4384368 C155.146182,38.0899822 157.727842,43.6156509 160.195051,51.4787611 C160.256362,43.1240429 157.943678,32.9764073 153.745051,25.0885659 C151.849978,21.5742024 150.483479,18.8495391 149.635966,16.8607477 C149.128206,15.6692274 148.785784,14.699615 148.604851,13.8618447 C148.456566,13.1752434 148.398929,12.535222 148.491184,11.8388076 C148.690366,10.3352333 149.577846,8.92850788 151.269089,8.31294585 C153.107668,7.64375796 154.878246,8.2447813 156.318755,9.51248402 C174.162163,22.8367302 178.953904,61.5529313 166.769937,77.505144 C166.594031,77.7459848 166.416455,77.9881309 166.236986,78.2319068 C165.161386,79.6929065 164.031888,81.1938107 162.725052,82.9037488 C161.571027,84.413739 157.509144,89.6716833 156.953344,90.3950031 C154.584939,93.4772472 152.660244,96.0307203 150.704978,98.703863 C146.423471,104.557325 142.304475,110.583566 137.910874,117.522056 C138.940827,118.178013 139.945852,118.869096 140.925321,119.594544 C154.973822,104.617399 171.316792,89.479574 189.945977,74.1860174 C204.458845,62.140575 214.685193,56.0418298 221.088334,55.8856377 C228.717305,55.6995439 230.703629,62.7549346 227.863889,75.313889 C222.64095,98.4127147 199.910303,121.576482 159.796544,144.996021 C162.436829,151.974787 163.817753,159.471876 163.817753,166.967667 C163.817753,181.059599 158.976246,190.723116 148.80407,196.572021 C139.658083,201.830877 126.326463,204 106.4275,204 C86.5285368,204 73.1969168,201.830877 64.0509298,196.572021 C53.878754,190.723116 49.0372475,181.059599 49.0372475,166.967667 C49.0372475,159.661471 50.3491974,152.354043 52.8605277,145.526562 C43.3355164,136.346697 36.1814218,129.574734 31.4070514,125.218363 C31.0524457,126.988822 30.6616408,128.722498 30.2360657,130.411548 C28.5759432,137.000352 26.4876503,142.374098 24.2822554,145.704608 C21.577625,149.789047 18.1843895,151.215205 15.3876069,148.25135 C10.3835158,142.948328 7.71842522,127.624361 6.97438212,101.700351 C6.9719852,101.616837 6.97473324,101.534387 6.98233863,101.453304 C6.64944962,95.1743998 10.5827687,88.8829861 16.2425592,83.6342756 C22.325799,77.9928716 29.2704753,75.2398143 32.8392538,78.237972 C40.4574015,84.6380354 55.9191592,100.885683 71.5361261,119.88891 Z M68.4445887,122.41542 C54.576227,105.540928 40.8498163,90.8782704 32.8198664,83.5403359 C33.0526116,85.2899816 33.2453384,87.0572683 33.3991823,88.8359656 C33.6005223,88.9316951 33.7892717,89.0628574 33.9560334,89.229439 C41.2131076,96.4786773 53.609479,110.502095 65.7163628,125.001723 C66.5977599,124.105155 67.5073925,123.242783 68.4445887,122.41542 Z M28.4348569,81.0335478 C26.1512455,81.3881024 22.4365357,83.3520468 18.9622547,86.573985 C14.0133419,91.16345 11.2169728,95.925109 10.986935,102.215688 C11.723968,126.655308 14.2935941,141.274113 18.2882304,145.507378 C18.7808198,146.029393 19.4531676,145.746809 20.949982,143.486373 C22.865884,140.593044 24.8018907,135.611172 26.3613319,129.421959 C29.9843521,115.042676 31.0027564,97.2309827 28.4602219,81.3330584 C28.4441306,81.232443 28.435824,81.1324013 28.4348569,81.0335478 Z M54.4856202,141.546376 C56.697934,136.632316 59.5590034,132.035063 63.0227729,127.951483 C62.9273453,127.872935 62.8378344,127.784418 62.7557432,127.686069 C52.0561777,114.867547 41.111286,102.402754 33.7675387,94.7466637 C34.1061977,103.491294 33.5529949,112.343711 32.2389304,120.585093 C36.8052133,124.677027 44.216905,131.66074 54.4856202,141.546376 Z M158.246468,141.27515 C197.199033,118.459126 219.064455,96.1186176 223.965793,74.4420975 C226.312815,64.0622201 225.109835,59.7892522 221.173437,59.8852729 C216.011208,60.0111953 206.29612,65.8050377 192.483166,77.269525 C174.070248,92.3855742 157.925766,107.329598 144.049632,122.099832 C144.730269,122.689763 145.396628,123.297938 146.048458,123.924054 C154.971175,114.772666 171.184077,100.055047 186.575603,87.0547702 C194.355755,80.4833533 201.292815,74.8912569 206.459573,71.0469886 C213.99069,65.4435448 216.639655,63.8730752 218.515647,65.661741 C221.164986,68.1877552 219.71793,74.1682968 214.856394,84.869566 C214.398985,85.8764201 213.213915,86.3239683 212.209465,85.869193 C211.205016,85.4144176 210.761552,84.2295329 211.218961,83.2226788 C213.373205,78.4807304 214.775234,74.7535038 215.422956,72.0765319 C215.692842,70.961118 215.810923,70.1016964 215.842511,69.5105575 C215.633163,69.6239574 215.403109,69.7547199 215.154039,69.902384 C213.629482,70.8062351 211.493978,72.2788425 208.837535,74.2553395 C203.747302,78.0426705 196.870004,83.5865916 189.14764,90.1091982 C173.798605,103.073586 157.619767,117.763503 148.824285,126.796377 C149.089604,127.091992 149.352092,127.390932 149.611728,127.693171 C153.110459,131.765999 156.004183,136.359484 158.246468,141.27515 Z M134.454807,115.503213 C146.968939,95.7214921 155.456537,86.2108559 163.545792,75.1354972 C173.645124,61.9114111 171.008283,25.2511175 153.789957,12.6125805 C153.206815,12.0609685 152.807797,12.0152345 152.638976,12.0766805 C151.794868,12.3839104 153.728257,16.645294 157.257554,23.1902833 C163.303382,34.5482681 165.404779,49.2515544 163.501021,58.7288372 C163.071234,59.649125 162.181055,60.3550529 161.505769,60.6008369 C160.324019,61.0309588 159.173038,60.4950588 158.206343,58.3643671 C156.625901,54.5474155 154.923196,44.0912027 147.403884,34.9882036 C144.35012,31.3255679 139.239892,27.2656363 138.226963,27.6343122 C137.720499,27.8186502 138.334247,29.50491 141.510761,33.5047976 C150.33441,44.6155965 152.129421,52.1737436 150.978114,55.8391831 C150.655774,56.5293991 149.765595,57.2353269 148.415024,57.7268948 C143.519201,59.5088285 132.822399,59.0099602 125.287459,53.5409767 C121.466265,50.9215209 116.263894,47.6589851 115.250965,48.027661 C114.406858,48.334891 116.232963,50.7256767 123.000474,57.2378401 C126.790899,60.8233178 131.793842,63.0126517 137.08852,63.3771218 C146.204554,64.260378 160.968536,61.7511967 156.96208,73.3305512 C152.603003,80.2641342 146.432961,87.4749252 140.017745,89.8098727 L139.680102,89.9327647 C134.400728,90.1356185 130.365292,79.5736276 128.769546,75.1893521 C127.910298,72.8285884 126.790085,71.3266665 126.1148,71.5724505 C125.608335,71.7567885 125.362673,73.1829543 125.853509,76.6326319 C127.019306,84.037865 125.622988,80.7267914 126.497538,83.654879 C127.540911,86.5215207 132.297867,94.3383599 130.332897,101.546347 C128.306551,108.585708 126.173084,111.653802 126.173084,111.653802 C126.106701,111.732124 126.04024,111.807594 125.973746,111.880332 C128.942931,112.860068 131.77312,114.071532 134.454807,115.503213 Z M92.6818745,110.301835 C91.7951984,108.829316 90.42733,106.235861 89.0042189,102.31299 C86.6290673,95.465737 90.7020942,87.5657337 91.5189898,84.7168802 C92.1688461,81.820129 91.0407532,85.1238236 91.6745989,77.8698774 C91.9194427,74.4942737 91.5876544,73.1296255 91.0865365,72.9859322 C90.4183794,72.7943413 89.4367348,74.3264442 88.7639972,76.6725588 C87.5146275,81.0296288 84.3202693,91.5392469 79.2106953,91.7063266 L78.8766168,91.6105311 C72.5291241,89.7904169 66.094687,83.2300507 61.426748,76.8135028 C56.7908511,65.8721802 71.2088623,67.2861009 79.9498281,65.8026455 C85.0365209,65.0849291 89.7204913,62.6195076 93.1413717,58.8851082 C99.2417511,52.1105143 100.84579,49.6687292 100.010594,49.4292405 C99.0083584,49.141854 94.2031111,52.6606511 90.6884156,55.4613569 C83.7780112,61.2782458 73.4856391,62.4982011 68.6415,61.1091666 C67.3051858,60.7259846 66.3990554,60.1034389 66.0420957,59.4570069 C64.6874806,55.9854827 65.9185495,48.5400706 73.6984826,37.169043 C76.4992585,33.075473 76.9797854,31.3996769 76.4786675,31.2559836 C75.4764318,30.9685972 70.8130524,35.2535081 68.1083818,39.0119189 C61.4542514,48.3481047 60.504628,58.5945976 59.232377,62.401031 C58.4406529,64.5316682 57.3651931,65.1300776 56.1959181,64.7947934 C55.527761,64.6032024 54.6216307,63.9806567 54.1456843,63.1187473 C51.6790078,54.0689482 52.7316073,39.6807377 57.8137404,28.2615624 C60.7861361,21.6781846 62.3695843,17.4169101 61.5343879,17.1774214 C61.3673487,17.1295237 60.9852174,17.2013078 60.4589281,17.7758308 C44.6771202,31.2049617 44.5649416,66.9004196 55.1913714,79.0154243 C63.2425044,88.6010973 71.5428844,96.8162996 83.680852,113.047265 C86.5423492,111.901543 89.5458431,110.982582 92.6818745,110.301835 Z M106.4275,199.99472 C142.940568,199.99472 159.825387,192.609881 159.825387,166.967667 C159.825387,141.325453 142.32365,112.879884 106.4275,112.879884 C70.5313502,112.879884 53.0296129,141.325453 53.0296129,166.967667 C53.0296129,192.609881 69.9144321,199.99472 106.4275,199.99472 Z" fill="#000000" fill-rule="nonzero"/><path d="M104.007914,185.617355 C103.845665,184.58256 103.808784,183.413335 103.891019,182.104979 L102.670557,182.104979 C100.37491,182.104979 98.2804878,180.795105 97.2757481,178.731008 L96.9454655,178.052489 C96.2641102,176.652741 96.8464832,174.965673 98.2462319,174.284317 C98.6305877,174.097224 99.0524618,174 99.4799348,174 L113.150973,174 C114.707745,174 115.969759,175.262014 115.969759,176.818786 C115.969759,177.246259 115.872535,177.668134 115.685442,178.052489 L115.355159,178.731008 C114.35042,180.795105 112.255997,182.104979 109.96035,182.104979 L107.847035,182.104979 C107.705958,183.948661 107.846915,185.312598 108.233382,186.169317 C108.308689,186.336257 108.824988,186.617371 109.999143,186.795625 C111.560613,187.032679 113.837945,186.979095 116.792896,186.61604 C117.874638,186.483133 118.856454,187.276151 118.985844,188.387295 C119.115233,189.498438 118.343199,190.50694 117.261457,190.639847 C111.878117,191.301262 108.185951,191.097297 106.125519,189.646269 C105.318877,190.195617 104.272071,190.499856 103.040733,190.526361 C100.908637,190.572255 98.1439393,190.374174 94.7284291,189.936117 C93.6473706,189.797466 92.8804244,188.784876 93.0154069,187.674435 C93.1503893,186.563994 94.1361852,185.776202 95.2172437,185.914853 C98.4590356,186.330629 101.045383,186.515932 102.958076,186.474761 C103.950584,186.453397 104.016844,186.392184 104.004241,185.794195 C104.002986,185.734669 104.004244,185.675687 104.007914,185.617355 Z" fill="#000000"/><circle fill="#000000" cx="128.5" cy="170.5" r="3.5"/><circle fill="#000000" cx="83.5" cy="170.5" r="3.5"/></g><text x="0" y="230" fill="#000000" font-size="5px" font-weight="bold" font-family="'Helvetica Neue', Helvetica, Arial-Unicode, Arial, Sans-serif">Created by Nick Bluth</text><text x="0" y="235" fill="#000000" font-size="5px" font-weight="bold" font-family="'Helvetica Neue', Helvetica, Arial-Unicode, Arial, Sans-serif">from the Noun Project</text></svg>
