<svg xmlns="http://www.w3.org/2000/svg" xmlns:xlink="http://www.w3.org/1999/xlink" version="1.1" x="0px" y="0px" viewBox="0 0 24 30" style="enable-background:new 0 0 24 24;" xml:space="preserve"><g><g><path d="M4,2.5c0-0.167-0.084-0.323-0.223-0.416l-3-2C0.55-0.068,0.238-0.008,0.084,0.222c-0.153,0.23-0.091,0.54,0.139,0.693    L2.599,2.5L0.223,4.084C0.084,4.177,0,4.333,0,4.5s0.084,0.323,0.223,0.416L2.599,6.5L0.223,8.084C0.084,8.177,0,8.333,0,8.5    s0.084,0.323,0.223,0.416l3,2C3.308,10.972,3.404,11,3.5,11c0.161,0,0.319-0.078,0.416-0.223c0.153-0.23,0.091-0.54-0.139-0.693    L1.401,8.5l2.376-1.584C3.916,6.823,4,6.667,4,6.5S3.916,6.177,3.777,6.084L1.401,4.5l2.376-1.584C3.916,2.823,4,2.667,4,2.5z"/><path d="M13,10c0,0.167,0.084,0.323,0.223,0.416L15.599,12l-2.376,1.584c-0.229,0.153-0.292,0.463-0.139,0.693    c0.097,0.145,0.255,0.223,0.416,0.223c0.096,0,0.192-0.027,0.277-0.084l3-2C16.916,12.323,17,12.167,17,12    s-0.084-0.323-0.223-0.416L14.401,10l2.376-1.584C16.916,8.323,17,8.167,17,8c0-0.167-0.084-0.323-0.223-0.416L14.401,6    l2.376-1.584c0.229-0.153,0.292-0.463,0.139-0.693c-0.154-0.23-0.466-0.292-0.693-0.139l-3,2C13.084,5.677,13,5.833,13,6    s0.084,0.323,0.223,0.416L15.599,8l-2.376,1.584C13.084,9.677,13,9.833,13,10z"/><path d="M8.223,9.084l-1.752,1.168c-0.418,0.279-0.668,0.746-0.668,1.248s0.25,0.969,0.668,1.248l0.504,0.336    c0.142,0.094,0.223,0.246,0.223,0.416s-0.081,0.322-0.223,0.416l-0.504,0.336c-0.418,0.279-0.668,0.746-0.668,1.248    c0,0.502,0.25,0.969,0.668,1.248l0.504,0.336c0.142,0.094,0.223,0.246,0.223,0.416s-0.081,0.322-0.223,0.416l-0.504,0.336    c-0.418,0.279-0.668,0.746-0.668,1.248s0.25,0.969,0.668,1.248l0.504,0.336c0.142,0.094,0.223,0.246,0.223,0.416    s-0.081,0.322-0.223,0.416l-1.752,1.168c-0.229,0.153-0.292,0.463-0.139,0.693C5.181,23.922,5.339,24,5.5,24    c0.096,0,0.192-0.027,0.277-0.084l1.752-1.168c0.418-0.279,0.668-0.746,0.668-1.248s-0.25-0.969-0.668-1.248l-0.504-0.336    C6.884,19.822,6.803,19.67,6.803,19.5s0.081-0.322,0.223-0.416l0.504-0.336c0.418-0.279,0.668-0.746,0.668-1.248    s-0.25-0.969-0.668-1.248l-0.504-0.336C6.884,15.822,6.803,15.67,6.803,15.5s0.081-0.322,0.223-0.416l0.504-0.336    c0.418-0.279,0.668-0.746,0.668-1.248s-0.25-0.969-0.668-1.248l-0.504-0.336C6.884,11.822,6.803,11.67,6.803,11.5    s0.081-0.322,0.223-0.416l1.752-1.168c0.229-0.153,0.292-0.463,0.139-0.693C8.762,8.992,8.449,8.931,8.223,9.084z"/><path d="M23.777,21.084l-1.752-1.168c-0.142-0.094-0.223-0.246-0.223-0.416s0.081-0.322,0.223-0.416l0.504-0.336    c0.418-0.279,0.668-0.746,0.668-1.248s-0.25-0.969-0.668-1.248l-0.504-0.336c-0.142-0.094-0.223-0.246-0.223-0.416    s0.081-0.322,0.223-0.416l0.504-0.336c0.418-0.279,0.668-0.746,0.668-1.248s-0.25-0.969-0.668-1.248l-0.504-0.336    c-0.142-0.094-0.223-0.246-0.223-0.416s0.081-0.322,0.223-0.416l0.504-0.336c0.418-0.279,0.668-0.746,0.668-1.248    s-0.25-0.969-0.668-1.248l-1.752-1.168c-0.229-0.152-0.539-0.092-0.693,0.139c-0.153,0.23-0.091,0.54,0.139,0.693l1.752,1.168    c0.142,0.094,0.223,0.246,0.223,0.416s-0.081,0.322-0.223,0.416l-0.504,0.336c-0.418,0.279-0.668,0.746-0.668,1.248    s0.25,0.969,0.668,1.248l0.504,0.336c0.142,0.094,0.223,0.246,0.223,0.416s-0.081,0.322-0.223,0.416l-0.504,0.336    c-0.418,0.279-0.668,0.746-0.668,1.248c0,0.502,0.25,0.969,0.668,1.248l0.504,0.336c0.142,0.094,0.223,0.246,0.223,0.416    s-0.081,0.322-0.223,0.416l-0.504,0.336c-0.418,0.279-0.668,0.746-0.668,1.248s0.25,0.969,0.668,1.248l1.752,1.168    C23.308,21.972,23.404,22,23.5,22c0.161,0,0.319-0.078,0.416-0.223C24.069,21.547,24.007,21.237,23.777,21.084z"/><circle cx="8.5" cy="3.5" r="2.5"/><circle cx="15.5" cy="19.5" r="2.5"/><circle cx="2.5" cy="15.5" r="1.5"/><circle cx="21.5" cy="2.5" r="1.5"/></g></g></svg>